<?xml version="1.0" encoding="UTF-8" standalone="no"?>
<svg
   xmlns:dc="http://purl.org/dc/elements/1.1/"
   xmlns:cc="http://creativecommons.org/ns#"
   xmlns:rdf="http://www.w3.org/1999/02/22-rdf-syntax-ns#"
   xmlns:svg="http://www.w3.org/2000/svg"
   xmlns="http://www.w3.org/2000/svg"
   xmlns:sodipodi="http://sodipodi.sourceforge.net/DTD/sodipodi-0.dtd"
   xmlns:inkscape="http://www.inkscape.org/namespaces/inkscape"
   inkscape:version="1.0beta2 (6465177, 2020-02-22)"
   sodipodi:docname="woman_green.svg"
   version="1.1"
   viewBox="0 0 72 72"
   id="emoji">
  <metadata
     id="metadata25">
    <rdf:RDF>
      <cc:Work
         rdf:about="">
        <dc:format>image/svg+xml</dc:format>
        <dc:type
           rdf:resource="http://purl.org/dc/dcmitype/StillImage" />
        <dc:title></dc:title>
      </cc:Work>
    </rdf:RDF>
  </metadata>
  <defs
     id="defs23" />
  <sodipodi:namedview
     inkscape:current-layer="emoji"
     inkscape:window-maximized="0"
     inkscape:window-y="16"
     inkscape:window-x="9"
     inkscape:cy="10.417786"
     inkscape:cx="45.611897"
     inkscape:zoom="6.5555556"
     showgrid="false"
     id="namedview21"
     inkscape:window-height="1314"
     inkscape:window-width="1254"
     inkscape:pageshadow="2"
     inkscape:pageopacity="0"
     guidetolerance="10"
     gridtolerance="10"
     objecttolerance="10"
     borderopacity="1"
     bordercolor="#666666"
     pagecolor="#ffffff" />
  <g
     id="color" />
  <g
     id="skin">
    <g
       id="color-2">
      <path
         style="fill:#99cc33"
         id="path3"
         d="M42.533,22.2881a4.3,4.3,0,0,0-4.209-4.1314h-6a4.3,4.3,0,0,0-4.209,4.1314l-.792,19.4393a1.0173,1.0173,0,0,1-.1209.4369l1.3961-.9967.8239,21.0356a1.2322,1.2322,0,0,0,.25.8789.2412.2412,0,0,0,.152.09c.214,0,.656-.4266.735-1.1254l2.8986-22.5033a4.9252,4.9252,0,0,1,.4028-1.1922l.7246-.8052H36.21l.984.6231a4.9259,4.9259,0,0,1,.352,1.3413l2.542,22.5343c.079.6978.522,1.1254.736,1.1254a.242.242,0,0,0,.152-.09c.1922-.2483.4894-.585.4568-.9l-.0762-21.5157L44,42.5"
         fill="#fcea2b" />
      <circle
         id="circle5"
         fill="#fcea2b"
         r="2.969"
         cy="10.6511"
         cx="35.4039" />
    </g>
  </g>
  <g
     id="line">
    <g
       id="Standing_Woman">
      <g
         id="line-2">
        <circle
           style="fill:#99cc33"
           id="circle9"
           stroke-width="2"
           stroke-miterlimit="10"
           stroke="#000"
           fill="none"
           r="2.969"
           cy="10.6511"
           cx="35.4039" />
        <path
           id="path11"
           d="M30.47,23.9986c2.3523,3.5329.677,6.107.0317,8a33.37,33.37,0,0,0-.8975,5.6136c-.6,5.9762-1.0025,24.0044-1.0025,24.0044-.055,1.1.575,2,1.4,2a2.076,2.076,0,0,0,1.729-1.987l2.539-22.031c.126-1.093.679-1.987,1.229-1.987s1.1.894,1.229,1.987L39.27,61.63a2.076,2.076,0,0,0,1.729,1.987c.825,0,1.455-.9,1.4-2,0,0-.5226-17.8415-1.0731-23.7627a35.8732,35.8732,0,0,0-.8269-5.8553c-.6173-1.9024-2.416-4.7392-.0287-8"
           stroke-width="2"
           stroke-linejoin="round"
           stroke-linecap="round"
           stroke="#000"
           fill="none" />
      </g>
      <path
         id="path14"
         d="M26.3729,41.5891l.792-19a5.274,5.274,0,0,1,5.208-5H38.3a5.274,5.274,0,0,1,5.208,5l.792,19"
         stroke-width="2"
         stroke-linejoin="round"
         stroke-linecap="round"
         stroke="#000"
         fill="none" />
    </g>
    <path
       id="path17"
       d="M39.1284,7.7112s.5786-.2695.9252.0177c.4081.3372.6856,1.5991,1.168,2.145a3.2605,3.2605,0,0,0,1.8128,1.0717"
       stroke-width="2"
       stroke-linejoin="round"
       stroke-linecap="round"
       stroke="#000"
       fill="none" />
  </g>
</svg>
